<?xml version="1.0" standalone="no"?><!DOCTYPE svg PUBLIC "-//W3C//DTD SVG 1.1//EN" "http://www.w3.org/Graphics/SVG/1.1/DTD/svg11.dtd"><svg t="1641971073621" class="icon" viewBox="0 0 1024 1024" version="1.1" xmlns="http://www.w3.org/2000/svg" p-id="4150" xmlns:xlink="http://www.w3.org/1999/xlink" width="200" height="200"><defs><style type="text/css"></style></defs><path d="M708.8 257.664a32 32 0 0 1 45.248-1.28 352 352 0 1 1-510.592 28.032 32 32 0 0 1 48.832 41.408 288 288 0 1 0 417.792-23.04 32 32 0 0 1-1.28-45.12z" p-id="4151"></path><path d="M480 192m32 0l0 0q32 0 32 32l0 384q0 32-32 32l0 0q-32 0-32-32l0-384q0-32 32-32Z" p-id="4152"></path></svg>