<?xml version="1.0" standalone="no"?><!DOCTYPE svg PUBLIC "-//W3C//DTD SVG 1.1//EN" "http://www.w3.org/Graphics/SVG/1.1/DTD/svg11.dtd"><svg t="1641971078227" class="icon" viewBox="0 0 1024 1024" version="1.1" xmlns="http://www.w3.org/2000/svg" p-id="4278" xmlns:xlink="http://www.w3.org/1999/xlink" width="200" height="200"><defs><style type="text/css"></style></defs><path d="M480 563.2m32 0l0 0q32 0 32 32l0 160q0 32-32 32l0 0q-32 0-32-32l0-160q0-32 32-32Z" p-id="4279"></path><path d="M512 160c102.72 0 185.856 84.928 191.68 191.104l0.32 11.904v9.088a32 32 0 0 1-63.488 5.76l-0.512-5.76v-9.088c0-77.248-57.792-139.008-128-139.008-67.2 0-122.944 56.512-127.68 129.024l-0.32 9.984V448h384a64 64 0 0 1 64 64v320a64 64 0 0 1-64 64h-512a64 64 0 0 1-64-64v-320a64 64 0 0 1 64-64h64V363.008c0-111.68 85.44-203.008 192-203.008z m256 352h-512v320h512v-320z" p-id="4280"></path></svg>